<mxfile host="app.diagrams.net" modified="2022-01-31T19:59:54.094Z" agent="5.0 (Windows)" etag="RzszCaHccFxkCwEEs_Iq" version="16.5.2" type="github">
  <diagram id="C5RBs43oDa-KdzZeNtuy" name="Page-1">
    <mxGraphModel dx="1278" dy="2902" grid="1" gridSize="10" guides="1" tooltips="1" connect="1" arrows="1" fold="1" page="1" pageScale="1" pageWidth="827" pageHeight="1169" math="0" shadow="0">
      <root>
        <mxCell id="WIyWlLk6GJQsqaUBKTNV-0" />
        <mxCell id="WIyWlLk6GJQsqaUBKTNV-1" parent="WIyWlLk6GJQsqaUBKTNV-0" />
        <mxCell id="HLLe7YfsGDXBNdtHh6So-0" value="&lt;p style=&quot;margin: 0px ; margin-top: 4px ; text-align: center&quot;&gt;&lt;b&gt;Ataque&lt;/b&gt;&lt;/p&gt;&lt;hr size=&quot;1&quot;&gt;&lt;hr size=&quot;1&quot;&gt;&lt;p style=&quot;margin: 0px ; margin-left: 4px&quot;&gt;+ getNivelDano(): int&lt;/p&gt;&lt;p style=&quot;margin: 0px ; margin-left: 4px&quot;&gt;+ getDescricao(): String&lt;br&gt;&lt;/p&gt;" style="verticalAlign=top;align=left;overflow=fill;fontSize=12;fontFamily=Helvetica;html=1;" vertex="1" parent="WIyWlLk6GJQsqaUBKTNV-1">
          <mxGeometry x="290" y="-2240" width="160" height="70" as="geometry" />
        </mxCell>
        <mxCell id="HLLe7YfsGDXBNdtHh6So-1" value="&lt;p style=&quot;margin: 0px ; margin-top: 4px ; text-align: center&quot;&gt;&lt;b&gt;AtaqueSimples&lt;/b&gt;&lt;/p&gt;&lt;hr size=&quot;1&quot;&gt;&lt;hr size=&quot;1&quot;&gt;&lt;p style=&quot;margin: 0px ; margin-left: 4px&quot;&gt;+ getNivelDano(): int&lt;/p&gt;+ getDescricao(): String" style="verticalAlign=top;align=left;overflow=fill;fontSize=12;fontFamily=Helvetica;html=1;" vertex="1" parent="WIyWlLk6GJQsqaUBKTNV-1">
          <mxGeometry x="160" y="-2090" width="160" height="70" as="geometry" />
        </mxCell>
        <mxCell id="HLLe7YfsGDXBNdtHh6So-2" value="&lt;p style=&quot;margin: 0px ; margin-top: 4px ; text-align: center&quot;&gt;&lt;b&gt;AtaqueDecorador&lt;/b&gt;&lt;/p&gt;&lt;hr size=&quot;1&quot;&gt;&lt;hr size=&quot;1&quot;&gt;&lt;p style=&quot;margin: 0px ; margin-left: 4px&quot;&gt;+ getNivelDano(): int&lt;/p&gt;+ getDescricao(): String" style="verticalAlign=top;align=left;overflow=fill;fontSize=12;fontFamily=Helvetica;html=1;" vertex="1" parent="WIyWlLk6GJQsqaUBKTNV-1">
          <mxGeometry x="420" y="-2090" width="160" height="70" as="geometry" />
        </mxCell>
        <mxCell id="HLLe7YfsGDXBNdtHh6So-3" value="" style="endArrow=block;endSize=16;endFill=0;html=1;rounded=0;exitX=0.75;exitY=0;exitDx=0;exitDy=0;entryX=0.25;entryY=1;entryDx=0;entryDy=0;" edge="1" parent="WIyWlLk6GJQsqaUBKTNV-1" source="HLLe7YfsGDXBNdtHh6So-1" target="HLLe7YfsGDXBNdtHh6So-0">
          <mxGeometry width="160" relative="1" as="geometry">
            <mxPoint x="247" y="-1898" as="sourcePoint" />
            <mxPoint x="440" y="-2000" as="targetPoint" />
          </mxGeometry>
        </mxCell>
        <mxCell id="HLLe7YfsGDXBNdtHh6So-4" value="" style="endArrow=block;endSize=16;endFill=0;html=1;rounded=0;exitX=0.25;exitY=0;exitDx=0;exitDy=0;entryX=0.75;entryY=1;entryDx=0;entryDy=0;" edge="1" parent="WIyWlLk6GJQsqaUBKTNV-1" source="HLLe7YfsGDXBNdtHh6So-2" target="HLLe7YfsGDXBNdtHh6So-0">
          <mxGeometry width="160" relative="1" as="geometry">
            <mxPoint x="257" y="-1888" as="sourcePoint" />
            <mxPoint x="450" y="-1990" as="targetPoint" />
          </mxGeometry>
        </mxCell>
        <mxCell id="HLLe7YfsGDXBNdtHh6So-5" value="component" style="endArrow=open;html=1;endSize=12;startArrow=diamondThin;startSize=14;startFill=0;edgeStyle=orthogonalEdgeStyle;align=left;verticalAlign=bottom;rounded=0;entryX=1;entryY=0.5;entryDx=0;entryDy=0;exitX=1;exitY=0.5;exitDx=0;exitDy=0;" edge="1" parent="WIyWlLk6GJQsqaUBKTNV-1" source="HLLe7YfsGDXBNdtHh6So-2" target="HLLe7YfsGDXBNdtHh6So-0">
          <mxGeometry x="-1" y="3" relative="1" as="geometry">
            <mxPoint x="630" y="-2090" as="sourcePoint" />
            <mxPoint x="530" y="-2130" as="targetPoint" />
            <Array as="points">
              <mxPoint x="630" y="-2055" />
              <mxPoint x="630" y="-2205" />
            </Array>
          </mxGeometry>
        </mxCell>
        <mxCell id="HLLe7YfsGDXBNdtHh6So-6" value="&lt;p style=&quot;margin: 0px ; margin-top: 4px ; text-align: center&quot;&gt;&lt;b&gt;SuperForca&lt;/b&gt;&lt;br&gt;&lt;/p&gt;&lt;hr size=&quot;1&quot;&gt;&lt;hr size=&quot;1&quot;&gt;" style="verticalAlign=top;align=left;overflow=fill;fontSize=12;fontFamily=Helvetica;html=1;" vertex="1" parent="WIyWlLk6GJQsqaUBKTNV-1">
          <mxGeometry x="340" y="-1950" width="110" height="40" as="geometry" />
        </mxCell>
        <mxCell id="HLLe7YfsGDXBNdtHh6So-7" value="&lt;p style=&quot;margin: 0px ; margin-top: 4px ; text-align: center&quot;&gt;&lt;b&gt;Invisibilidade&lt;/b&gt;&lt;br&gt;&lt;/p&gt;&lt;hr size=&quot;1&quot;&gt;&lt;hr size=&quot;1&quot;&gt;" style="verticalAlign=top;align=left;overflow=fill;fontSize=12;fontFamily=Helvetica;html=1;" vertex="1" parent="WIyWlLk6GJQsqaUBKTNV-1">
          <mxGeometry x="460" y="-1950" width="110" height="40" as="geometry" />
        </mxCell>
        <mxCell id="HLLe7YfsGDXBNdtHh6So-8" value="&lt;p style=&quot;margin: 0px ; margin-top: 4px ; text-align: center&quot;&gt;&lt;b&gt;Velocidade&lt;/b&gt;&lt;br&gt;&lt;/p&gt;&lt;hr size=&quot;1&quot;&gt;&lt;hr size=&quot;1&quot;&gt;" style="verticalAlign=top;align=left;overflow=fill;fontSize=12;fontFamily=Helvetica;html=1;" vertex="1" parent="WIyWlLk6GJQsqaUBKTNV-1">
          <mxGeometry x="580" y="-1950" width="110" height="40" as="geometry" />
        </mxCell>
        <mxCell id="HLLe7YfsGDXBNdtHh6So-9" value="" style="endArrow=block;endSize=16;endFill=0;html=1;rounded=0;exitX=0.75;exitY=0;exitDx=0;exitDy=0;entryX=0.25;entryY=1;entryDx=0;entryDy=0;" edge="1" parent="WIyWlLk6GJQsqaUBKTNV-1" source="HLLe7YfsGDXBNdtHh6So-6" target="HLLe7YfsGDXBNdtHh6So-2">
          <mxGeometry width="160" relative="1" as="geometry">
            <mxPoint x="290" y="-2080" as="sourcePoint" />
            <mxPoint x="340" y="-2160" as="targetPoint" />
          </mxGeometry>
        </mxCell>
        <mxCell id="HLLe7YfsGDXBNdtHh6So-10" value="" style="endArrow=block;endSize=16;endFill=0;html=1;rounded=0;exitX=0.5;exitY=0;exitDx=0;exitDy=0;entryX=0.5;entryY=1;entryDx=0;entryDy=0;" edge="1" parent="WIyWlLk6GJQsqaUBKTNV-1" source="HLLe7YfsGDXBNdtHh6So-7" target="HLLe7YfsGDXBNdtHh6So-2">
          <mxGeometry width="160" relative="1" as="geometry">
            <mxPoint x="432.5" y="-1940" as="sourcePoint" />
            <mxPoint x="470.0000000000002" y="-2010" as="targetPoint" />
          </mxGeometry>
        </mxCell>
        <mxCell id="HLLe7YfsGDXBNdtHh6So-11" value="" style="endArrow=block;endSize=16;endFill=0;html=1;rounded=0;exitX=0.25;exitY=0;exitDx=0;exitDy=0;entryX=0.75;entryY=1;entryDx=0;entryDy=0;" edge="1" parent="WIyWlLk6GJQsqaUBKTNV-1" source="HLLe7YfsGDXBNdtHh6So-8" target="HLLe7YfsGDXBNdtHh6So-2">
          <mxGeometry width="160" relative="1" as="geometry">
            <mxPoint x="442.5" y="-1930" as="sourcePoint" />
            <mxPoint x="480.0000000000002" y="-2000" as="targetPoint" />
          </mxGeometry>
        </mxCell>
      </root>
    </mxGraphModel>
  </diagram>
</mxfile>
